<svg height="511pt" viewBox="-77 1 511 511.99925" width="511pt" xmlns="http://www.w3.org/2000/svg"><path d="m223.925781 361.332031v19.144531c0 41.628907-7.957031 82.878907-23.445312 121.523438h-41.960938c-15.488281-38.644531-23.445312-79.894531-23.445312-121.523438v-19.144531zm0 0" fill="#cbe558"/><path d="m258.488281 133.761719c0-72.726563-78.988281-123.761719-78.988281-123.761719s-78.988281 51.035156-78.988281 123.761719l78.988281 82.238281zm0 0" fill="#b0aeed"/><g fill="#9593e6"><path d="m179.5 216h-37c-23.136719 0-44.980469 10.675781-59.195312 28.929688l-13.605469 17.46875c-14.21875 18.253906-36.0625 28.925781-59.199219 28.925781v-67.414063c0-23.320312 7.503906-46.019531 21.402344-64.75 12.328125-16.613281 31.796875-26.40625 52.484375-26.40625 17.261719 0 33.820312 6.828125 46.0625 18.992188l14.683593 14.585937"/><path d="m179.5 216h37c23.136719 0 44.980469 10.675781 59.195312 28.929688l13.609376 17.46875c14.214843 18.253906 36.058593 28.925781 59.195312 28.925781v-67.414063c0-23.320312-7.503906-46.019531-21.402344-64.75-12.328125-16.613281-31.796875-26.40625-52.484375-26.40625-17.257812 0-33.820312 6.828125-46.0625 18.992188l-14.683593 14.585937"/><path d="m258.488281 290.5c0-41.144531-35.363281-74.5-78.988281-74.5s-78.988281 33.355469-78.988281 74.5 78.988281 117.5 78.988281 117.5 78.988281-76.355469 78.988281-117.5zm0 0"/></g><path d="m179.527344 107.210938h-14.226563c-10.6875 0-19.351562 8.664062-19.351562 19.355468v5.863282 52.144531c0 17.425781 14.125 31.550781 31.550781 31.550781s31.554688-14.125 31.554688-31.550781v-47.832031c0-16.308594-13.222657-29.53125-29.527344-29.53125zm0 0" fill="#8481e2"/><path d="m335.128906 153.203125c-14.148437-19.066406-36.773437-30.449219-60.515625-30.449219-2.226562 0-4.441406.113282-6.636719.300782-6.835937-71.402344-79.796874-119.351563-83.050781-121.453126-3.300781-2.136718-7.550781-2.136718-10.851562 0-3.253907 2.101563-76.214844 50.050782-83.050781 121.453126-2.199219-.1875-4.410157-.300782-6.636719-.300782-23.746094 0-46.367188 11.382813-60.515625 30.449219-15.070313 20.308594-23.371094 45.417969-23.371094 70.707031v67.414063c0 5.523437 4.476562 10 10 10 26.40625 0 50.859375-11.949219 67.085938-32.78125l13.605468-17.472657c6.574219-8.441406 14.921875-14.949218 24.316406-19.226562-15.46875 15.207031-25 35.894531-25 58.65625 0 17.664062 11.621094 41.667969 34.5625 71.441406v18.53125c0 43.101563 8.128907 85.238282 24.164063 125.246094 1.566406 3.90625 5.320313 6.28125 9.285156 6.28125 1.238281 0 2.5-.230469 3.71875-.722656 5.125-2.054688 7.617188-7.875 5.5625-13.003906-.742187-1.84375-1.449219-3.695313-2.152343-5.550782 11.988281-16.582031 25.75-31.6875 41.097656-45.101562-3.738282 17.210937-8.925782 34.125-15.550782 50.652344-2.054687 5.128906.4375 10.949218 5.5625 13.003906 1.222657.488281 2.480469.722656 3.71875.722656 3.964844 0 7.71875-2.375 9.285157-6.28125 16.035156-40.007812 24.164062-82.144531 24.164062-125.246094v-18.53125c22.941407-29.773437 34.5625-53.777344 34.5625-71.441406 0-22.761719-9.53125-43.449219-25-58.65625 9.394531 4.277344 17.742188 10.785156 24.316407 19.226562l13.605468 17.472657c16.226563 20.832031 40.679688 32.78125 67.085938 32.78125 5.523437 0 10-4.476563 10-10v-67.414063c.003906-25.289062-8.296875-50.402344-23.367188-70.707031zm-155.628906-130.949219c16.503906 12.265625 65.097656 52.664063 68.761719 105.238282-9.917969 3.695312-19.03125 9.480468-26.757813 17.160156l-2.449218 2.433594v-10.34375c0-18.34375-12.558594-33.804688-29.527344-38.246094v-26.613282c0-5.523437-4.480469-10-10-10-5.523438 0-10 4.476563-10 10v25.328126h-4.226563c-16.1875 0-29.351562 13.167968-29.351562 29.355468 0 1.257813.078125 2.492188.230469 3.710938-.152344.695312-.230469 1.417968-.230469 2.152344v10.753906c-7.390625-6.945313-15.941407-12.238282-25.210938-15.691406 3.664063-52.578126 52.265625-92.976563 68.761719-105.238282zm0 183.746094h-4.300781c-10.804688-1.152344-19.25-10.320312-19.25-21.425781v-18.257813c10.40625 13.050782 23.140625 24.128906 37.585937 32.644532-3.457031 3.847656-8.273437 6.449218-13.6875 7.039062zm.023438-88.789062c10.492187 0 19.078124 8.316406 19.511718 18.707031h-33.734375c-5.15625 0-9.351562-4.195313-9.351562-9.355469 0-5.15625 4.195312-9.351562 9.351562-9.351562zm19.527343 38.707031v22.929687c-9.6875-6.335937-18.375-14.070312-25.777343-22.929687zm-123.636719 82.863281-13.605468 17.472656c-10.332032 13.265625-25.019532 21.820313-41.308594 24.3125v-56.65625c0-21.023437 6.902344-41.902344 19.433594-58.789062 10.394531-14.003906 27.011718-22.367188 44.453125-22.367188 14.71875 0 28.574219 5.714844 39.015625 16.085938l12.546875 12.464844v4.898437l-.398438-.070313c-21.09375-3.601562-42.648437-1.050781-62.320312 7.382813-5.078125 2.175781-7.429688 8.054687-5.25 13.128906 1.625 3.792969 5.316406 6.066407 9.195312 6.066407 1.3125 0 2.648438-.261719 3.933594-.816407 16.121094-6.910156 33.785156-9 51.074219-6.046875l5.605468.960938c1.003907 3.253906 2.398438 6.339844 4.128907 9.199218-26.183594.175782-50.398438 12.09375-66.503907 32.773438zm82.515626 231.050781c-8.007813-27.148437-12.28125-55.164062-12.789063-83.648437 14.714844 16.695312 26.765625 28.382812 27.410156 29.003906 1.9375 1.875 4.441407 2.8125 6.949219 2.8125 2.503906 0 5.011719-.9375 6.949219-2.8125.640625-.621094 12.695312-12.308594 27.410156-29.003906-.191406 10.664062-.894531 21.261718-2.144531 31.773437-20.140625 14.9375-38.179688 32.34375-53.785156 51.875zm90.558593-179.332031c0 27.332031-44.78125 78.683594-68.988281 103.390625-24.210938-24.699219-68.988281-76.03125-68.988281-103.390625 0-32.390625 25.671875-59.269531 58.988281-63.816406v43.816406c0 5.519531 4.480469 10 10 10 5.523438 0 10-4.480469 10-10v-43.816406c33.316406 4.546875 58.988281 31.425781 58.988281 63.816406zm90.011719-9.933594c-16.285156-2.492187-30.976562-11.046875-41.308594-24.3125l-13.605468-17.472656c-16.226563-20.832031-40.675782-32.78125-67.085938-32.78125h-3.410156c1.597656-2.644531 2.902344-5.484375 3.882812-8.46875l9.847656-1.683594c17.289063-2.957031 34.949219-.863281 51.074219 6.046875 1.285157.550781 2.621094.8125 3.933594.8125 3.878906 0 7.570313-2.269531 9.195313-6.0625 2.175781-5.074219-.171876-10.953125-5.25-13.128906-19.671876-8.4375-41.226563-10.988281-62.320313-7.382813l-4.398437.75v-2.007812c.660156-.402344 1.289062-.878906 1.863281-1.449219l14.679687-14.585937c10.441406-10.375 24.300782-16.085938 39.019532-16.085938 17.441406 0 34.058593 8.359375 44.453124 22.367188 12.53125 16.882812 19.429688 37.761718 19.429688 58.789062zm0 0"/><path d="m179.5 299.828125c-2.628906 0-5.210938 1.070313-7.070312 2.929687-1.859376 1.863282-2.929688 4.441407-2.929688 7.070313 0 2.640625 1.070312 5.210937 2.929688 7.070313 1.859374 1.859374 4.429687 2.929687 7.070312 2.929687 2.628906 0 5.210938-1.070313 7.070312-2.929687 1.859376-1.859376 2.929688-4.4375 2.929688-7.070313 0-2.628906-1.070312-5.207031-2.929688-7.070313-1.859374-1.859374-4.441406-2.929687-7.070312-2.929687zm0 0"/></svg>